<svg xmlns="http://www.w3.org/2000/svg" viewBox="0 0 64 64"><rect width="64" height="64" rx="14" fill="#fbf7f2"/><path d="M22 14c-2-3 2-5 0-8M32 14c-2-3 2-5 0-8M42 14c-2-3 2-5 0-8" stroke="#f0a58f" stroke-width="3" fill="none" stroke-linecap="round"/><rect x="8" y="22" width="48" height="6" rx="3" fill="#b52f17"/><path d="M11 28h42v14a14 14 0 0 1-14 14H25a14 14 0 0 1-14-14z" fill="#ee4c2e"/><path d="M11 32H5M53 32h6" stroke="#b52f17" stroke-width="4" stroke-linecap="round"/><circle cx="25" cy="38" r="2.6" fill="#2b211b"/><circle cx="39" cy="38" r="2.6" fill="#2b211b"/><path d="M26 44c3 3.5 9 3.5 12 0" stroke="#2b211b" stroke-width="2.6" fill="none" stroke-linecap="round"/><circle cx="20" cy="43" r="2.4" fill="#ff9f88" opacity=".8"/><circle cx="44" cy="43" r="2.4" fill="#ff9f88" opacity=".8"/></svg>
